<svg width="124" height="33" viewBox="0 0 124 33" fill="none" xmlns="http://www.w3.org/2000/svg">
<path d="M0 5C0 3.34315 1.34315 2 3 2C4.65685 2 6 3.34315 6 5V23C6 24.6569 4.65685 26 3 26C1.34315 26 0 24.6569 0 23V5Z" fill="black"/>
<path d="M10 5C10 3.34315 11.3431 2 13 2C14.6569 2 16 3.34315 16 5V23C16 24.6569 14.6569 26 13 26C11.3431 26 10 24.6569 10 23V5Z" fill="black"/>
<path d="M20 11C20 8.23858 22.2386 6 25 6C27.7614 6 30 8.23858 30 11V17C30 19.7614 27.7614 22 25 22C22.2386 22 20 19.7614 20 17V11Z" fill="black"/>
<path d="M48.1136 32.5455V8.54545H52.1591V11.4318H52.3977C52.6098 11.0076 52.9091 10.5568 53.2955 10.0795C53.6818 9.5947 54.2045 9.18182 54.8636 8.84091C55.5227 8.49242 56.3636 8.31818 57.3864 8.31818C58.7348 8.31818 59.9508 8.66288 61.0341 9.35227C62.125 10.0341 62.9886 11.0455 63.625 12.3864C64.2689 13.7197 64.5909 15.3561 64.5909 17.2955C64.5909 19.2121 64.2765 20.8409 63.6477 22.1818C63.0189 23.5227 62.1629 24.5455 61.0795 25.25C59.9962 25.9545 58.7689 26.3068 57.3977 26.3068C56.3977 26.3068 55.5682 26.1402 54.9091 25.8068C54.25 25.4735 53.7197 25.072 53.3182 24.6023C52.9242 24.125 52.6174 23.6742 52.3977 23.25H52.2273V32.5455H48.1136ZM52.1477 17.2727C52.1477 18.4015 52.3068 19.3902 52.625 20.2386C52.9508 21.0871 53.4167 21.75 54.0227 22.2273C54.6364 22.697 55.3788 22.9318 56.25 22.9318C57.1591 22.9318 57.9205 22.6894 58.5341 22.2045C59.1477 21.7121 59.6098 21.0417 59.9205 20.1932C60.2386 19.3371 60.3977 18.3636 60.3977 17.2727C60.3977 16.1894 60.2424 15.2273 59.9318 14.3864C59.6212 13.5455 59.1591 12.8864 58.5455 12.4091C57.9318 11.9318 57.1667 11.6932 56.25 11.6932C55.3712 11.6932 54.625 11.9242 54.0114 12.3864C53.3977 12.8485 52.9318 13.4962 52.6136 14.3295C52.303 15.1629 52.1477 16.1439 52.1477 17.2727ZM71.7781 2.72727V26H67.6644V2.72727H71.7781ZM86.6839 18.6591V8.54545H90.7976V26H86.8089V22.8977H86.6271C86.2332 23.875 85.5855 24.6742 84.6839 25.2955C83.79 25.9167 82.6877 26.2273 81.3771 26.2273C80.2332 26.2273 79.2218 25.9735 78.343 25.4659C77.4718 24.9508 76.79 24.2045 76.2976 23.2273C75.8052 22.2424 75.5589 21.053 75.5589 19.6591V8.54545H79.6726V19.0227C79.6726 20.1288 79.9756 21.0076 80.5817 21.6591C81.1877 22.3106 81.9832 22.6364 82.968 22.6364C83.5741 22.6364 84.1612 22.4886 84.7294 22.1932C85.2976 21.8977 85.7635 21.4583 86.1271 20.875C86.4983 20.2841 86.6839 19.5455 86.6839 18.6591ZM103.294 8.54545V11.7273H93.2603V8.54545H103.294ZM95.7376 4.36364H99.8512V20.75C99.8512 21.303 99.9345 21.7273 100.101 22.0227C100.275 22.3106 100.503 22.5076 100.783 22.6136C101.063 22.7197 101.374 22.7727 101.715 22.7727C101.972 22.7727 102.207 22.7538 102.419 22.7159C102.639 22.678 102.806 22.6439 102.919 22.6136L103.613 25.8295C103.393 25.9053 103.078 25.9886 102.669 26.0795C102.268 26.1705 101.775 26.2235 101.192 26.2386C100.162 26.2689 99.2338 26.1136 98.408 25.7727C97.5823 25.4242 96.927 24.8864 96.4421 24.1591C95.9648 23.4318 95.73 22.5227 95.7376 21.4318V4.36364ZM113.712 26.3409C112.007 26.3409 110.53 25.9659 109.28 25.2159C108.03 24.4659 107.06 23.4167 106.371 22.0682C105.689 20.7197 105.348 19.1439 105.348 17.3409C105.348 15.5379 105.689 13.9583 106.371 12.6023C107.06 11.2462 108.03 10.1932 109.28 9.44318C110.53 8.69318 112.007 8.31818 113.712 8.31818C115.416 8.31818 116.893 8.69318 118.143 9.44318C119.393 10.1932 120.359 11.2462 121.041 12.6023C121.731 13.9583 122.075 15.5379 122.075 17.3409C122.075 19.1439 121.731 20.7197 121.041 22.0682C120.359 23.4167 119.393 24.4659 118.143 25.2159C116.893 25.9659 115.416 26.3409 113.712 26.3409ZM113.734 23.0455C114.659 23.0455 115.431 22.7917 116.053 22.2841C116.674 21.7689 117.136 21.0795 117.439 20.2159C117.75 19.3523 117.905 18.3902 117.905 17.3295C117.905 16.2614 117.75 15.2955 117.439 14.4318C117.136 13.5606 116.674 12.8674 116.053 12.3523C115.431 11.8371 114.659 11.5795 113.734 11.5795C112.787 11.5795 112 11.8371 111.371 12.3523C110.75 12.8674 110.284 13.5606 109.973 14.4318C109.67 15.2955 109.518 16.2614 109.518 17.3295C109.518 18.3902 109.67 19.3523 109.973 20.2159C110.284 21.0795 110.75 21.7689 111.371 22.2841C112 22.7917 112.787 23.0455 113.734 23.0455Z" fill="black"/>
</svg>
